<?xml version="1.0" encoding="utf-8"?>
<!-- Generator: Adobe Illustrator 14.0.0, SVG Export Plug-In . SVG Version: 6.00 Build 43363)  -->
<!DOCTYPE svg PUBLIC "-//W3C//DTD SVG 1.1//EN" "http://www.w3.org/Graphics/SVG/1.1/DTD/svg11.dtd">
<svg version="1.1" id="Layer_1" xmlns="http://www.w3.org/2000/svg" xmlns:xlink="http://www.w3.org/1999/xlink" x="0px" y="0px"
	 width="612px" height="792px" viewBox="0 0 612 792" enable-background="new 0 0 612 792" xml:space="preserve">
<g id="Layer_2">
</g>
<g id="Layer_1_1_">
	<path fill="#B3B3B3" d="M322.936,21.067c-28.888,23.836-99.083,152.341-99.083,175.26c0,33.444,8.513,85.602,8.513,101.926
		c0,16.324,0,15.129,0,23.092c0,7.964,0,395.999,0,395.999l5.313,3.746h86.474h86.476l5.312-3.746c0,0,0-388.035,0-395.999
		c0-7.963,0-6.769,0-23.092c0-16.324,8.514-68.482,8.514-101.926C424.453,173.782,353.404,45.071,322.936,21.067z"/>
	<rect x="360.25" y="460.5" fill="#E6E6E6" width="24.5" height="42.5"/>
	<rect x="266.5" y="460.5" fill="#E6E6E6" width="24.5" height="42.5"/>
	<rect x="249.148" y="163.055" fill="#CCCCCC" width="152.273" height="133.924"/>
	<rect x="253.985" y="194.468" fill="#E6E6E6" width="142.599" height="125.416"/>
	<path fill="#FFFFFF" d="M402.326,232.682H246.29c-6.188,0-11.205,5.018-11.205,11.207v219.513h178.449V243.889
		C413.533,237.7,408.518,232.682,402.326,232.682z"/>
	<path fill="#F0D790" d="M453.041,293.995h-21.195V279.45c0-5.671-4.596-10.267-10.268-10.267h-51.688v128.936h61.954v-71.164
		h21.195L453.041,293.995L453.041,293.995z"/>
	<path fill="#F0D790" d="M200.596,293.995h21.194V279.45c0-5.671,4.597-10.267,10.267-10.267h51.688v128.936h-61.954v-71.164
		h-21.194L200.596,293.995L200.596,293.995z"/>
	<path fill="#E6E6E6" d="M393.113,259.445H257.214c-5.671,0-10.267,4.597-10.267,10.267v128.407h156.431V269.712
		C403.379,264.042,398.783,259.445,393.113,259.445z"/>
	<path fill="#FFFFFF" d="M381.541,271.189H268.787c-4.704,0-8.519,3.814-8.519,8.519v118.411h129.791V279.708
		C390.059,275.003,386.244,271.189,381.541,271.189z"/>
	<path fill="#FFFFFF" stroke="#000000" d="M284.726,405.285h-46.935h-0.766v3.561v50.22v1.479h0.869h46.385h1.302v-0.916v-52.789
		v-1.553L284.726,405.285L284.726,405.285z"/>
	<polygon fill="#828282" points="238.573,412.749 238.573,415.862 238.537,415.871 237.026,408.846 237.026,405.285 
		237.792,405.285 239.397,412.749 	"/>
	<polygon fill="#828282" points="281.522,412.749 280.614,412.749 284.726,405.285 285.582,405.285 285.582,406.838 
		281.522,414.203 	"/>
	<polygon fill="#828282" points="238.573,456.433 238.573,457.873 239.464,457.873 237.895,460.543 237.026,460.543 
		237.026,459.064 	"/>
	<polygon fill="#828282" points="281.522,457.873 281.522,456.77 285.582,459.627 285.582,460.543 284.28,460.543 280.489,457.873 	
		"/>
	<rect x="233.805" y="533.713" fill="#CCCCCC" width="182.279" height="107.869"/>
	<path fill="#DA2311" d="M398.605,522.207c0,0-21.578,17.189-21.578,51.203c0,34.015,4.021,71.686,4.021,71.686h13.533h8.045h13.533
		c0,0,4.022-37.671,4.022-71.686C420.184,539.396,398.605,522.207,398.605,522.207z"/>
	<rect x="290.236" y="537.707" fill="#FFFFFF" width="62.426" height="100.379"/>
	<line fill="none" stroke="#828282" stroke-width="0.7491" x1="290.236" y1="540.549" x2="352.662" y2="540.549"/>
	<line fill="none" stroke="#828282" stroke-width="0.7491" x1="290.236" y1="543.85" x2="352.662" y2="543.85"/>
	<line fill="none" stroke="#828282" stroke-width="0.7491" x1="290.236" y1="547.15" x2="352.662" y2="547.15"/>
	<line fill="none" stroke="#828282" stroke-width="0.7491" x1="290.236" y1="550.451" x2="352.662" y2="550.451"/>
	<line fill="none" stroke="#828282" stroke-width="0.7491" x1="290.236" y1="550.451" x2="352.662" y2="550.451"/>
	<line fill="none" stroke="#828282" stroke-width="0.7491" x1="290.236" y1="553.752" x2="352.662" y2="553.752"/>
	<line fill="none" stroke="#828282" stroke-width="0.7491" x1="290.236" y1="557.053" x2="352.662" y2="557.053"/>
	<line fill="none" stroke="#828282" stroke-width="0.7491" x1="290.236" y1="560.354" x2="352.662" y2="560.354"/>
	<line fill="none" stroke="#828282" stroke-width="0.7491" x1="290.236" y1="563.654" x2="352.662" y2="563.654"/>
	<line fill="none" stroke="#828282" stroke-width="0.7491" x1="290.236" y1="566.955" x2="352.662" y2="566.955"/>
	<line fill="none" stroke="#828282" stroke-width="0.7491" x1="290.236" y1="570.256" x2="352.662" y2="570.256"/>
	<line fill="none" stroke="#828282" stroke-width="0.7491" x1="290.236" y1="573.557" x2="352.662" y2="573.557"/>
	<line fill="none" stroke="#828282" stroke-width="0.7491" x1="290.236" y1="576.856" x2="352.662" y2="576.856"/>
	<line fill="none" stroke="#828282" stroke-width="0.7491" x1="290.236" y1="580.157" x2="352.662" y2="580.157"/>
	<line fill="none" stroke="#828282" stroke-width="0.7491" x1="290.236" y1="583.458" x2="352.662" y2="583.458"/>
	<line fill="none" stroke="#828282" stroke-width="0.7491" x1="290.236" y1="586.759" x2="352.662" y2="586.759"/>
	<line fill="none" stroke="#828282" stroke-width="0.7491" x1="290.236" y1="590.06" x2="352.662" y2="590.06"/>
	<line fill="none" stroke="#828282" stroke-width="0.7491" x1="290.236" y1="593.359" x2="352.662" y2="593.359"/>
	<line fill="none" stroke="#828282" stroke-width="0.7491" x1="290.236" y1="596.66" x2="352.662" y2="596.66"/>
	<line fill="none" stroke="#828282" stroke-width="0.7491" x1="290.236" y1="599.961" x2="352.662" y2="599.961"/>
	<line fill="none" stroke="#828282" stroke-width="0.7491" x1="290.236" y1="603.262" x2="352.662" y2="603.262"/>
	<line fill="none" stroke="#828282" stroke-width="0.7491" x1="290.236" y1="606.562" x2="352.662" y2="606.562"/>
	<line fill="none" stroke="#828282" stroke-width="0.7491" x1="290.236" y1="609.863" x2="352.662" y2="609.863"/>
	<line fill="none" stroke="#828282" stroke-width="0.7491" x1="290.236" y1="613.164" x2="352.662" y2="613.164"/>
	<line fill="none" stroke="#828282" stroke-width="0.7491" x1="290.236" y1="616.465" x2="352.662" y2="616.465"/>
	<line fill="none" stroke="#828282" stroke-width="0.7491" x1="290.236" y1="619.766" x2="352.662" y2="619.766"/>
	<line fill="none" stroke="#828282" stroke-width="0.7491" x1="290.236" y1="626.367" x2="352.662" y2="626.367"/>
	<line fill="none" stroke="#828282" stroke-width="0.7491" x1="290.236" y1="626.367" x2="352.662" y2="626.367"/>
	<line fill="none" stroke="#828282" stroke-width="0.7491" x1="290.236" y1="626.367" x2="352.662" y2="626.367"/>
	<line fill="none" stroke="#828282" stroke-width="0.7491" x1="290.236" y1="623.066" x2="352.662" y2="623.066"/>
	<line fill="none" stroke="#828282" stroke-width="0.7491" x1="290.236" y1="626.367" x2="352.662" y2="626.367"/>
	<line fill="none" stroke="#828282" stroke-width="0.7491" x1="290.236" y1="629.668" x2="352.662" y2="629.668"/>
	<line fill="none" stroke="#828282" stroke-width="0.7491" x1="290.236" y1="632.969" x2="352.662" y2="632.969"/>
	<line fill="none" stroke="#828282" stroke-width="0.7491" x1="290.236" y1="636.27" x2="352.662" y2="636.27"/>
	<rect x="380.625" y="666.455" fill="#F0D790" width="11.486" height="26.338"/>
	<rect x="255.42" y="666.455" fill="#F0D790" width="11.486" height="26.338"/>
	<rect x="256.778" y="735.572" fill="#F0D790" width="137.833" height="11.485"/>
	
		<rect x="242.643" y="710.524" transform="matrix(-0.3175 -0.9483 0.9483 -0.3175 -324.387 1199.0583)" fill="#F0D790" width="53.35" height="11.488"/>
	
		<rect x="351.498" y="710.505" transform="matrix(0.3175 -0.9483 0.9483 0.3175 -421.0823 847.462)" fill="#424242" width="53.35" height="11.487"/>
	
		<rect x="351.498" y="710.505" transform="matrix(0.3175 -0.9483 0.9483 0.3175 -421.0823 847.462)" fill="#F0D790" width="53.35" height="11.487"/>
	<rect x="310.811" y="359.841" fill="#4D4D4D" width="28.937" height="28.936"/>
	<circle fill="#FFFFFF" cx="325.277" cy="374.309" r="9.673"/>
	<g>
		<polygon points="325.436,466.077 323.848,506.392 324.09,506.392 325.678,466.077 		"/>
		<polygon points="322.73,466.077 321.143,506.392 321.459,506.392 323.047,466.077 		"/>
		<polygon points="324.119,466.077 322.531,506.392 322.773,506.392 324.361,466.077 		"/>
		<polygon points="328.066,466.077 326.479,506.392 326.867,506.392 328.455,466.077 		"/>
		<polygon points="326.75,466.077 325.162,506.392 325.404,506.392 326.994,466.077 		"/>
		<polygon points="318.785,466.077 317.195,506.392 317.438,506.392 319.027,466.077 		"/>
		<polygon points="320.1,466.077 318.512,506.392 318.754,506.392 320.342,466.077 		"/>
		<polygon points="321.416,466.077 319.826,506.392 320.07,506.392 321.658,466.077 		"/>
		<polygon points="337.496,466.077 335.908,506.392 336.15,506.392 337.738,466.077 		"/>
		<polygon points="336.18,466.077 334.592,506.392 334.834,506.392 336.422,466.077 		"/>
		<polygon points="338.811,466.077 337.223,506.392 337.539,506.392 339.127,466.077 		"/>
		<polygon points="334.863,466.077 333.275,506.392 333.52,506.392 335.107,466.077 		"/>
		<polygon points="332.16,466.077 330.572,506.392 330.814,506.392 332.402,466.077 		"/>
		<polygon points="330.844,466.077 329.256,506.392 329.498,506.392 331.086,466.077 		"/>
		<polygon points="329.529,466.077 327.941,506.392 328.182,506.392 329.771,466.077 		"/>
		<polygon points="333.477,466.077 331.887,506.392 332.203,506.392 333.791,466.077 		"/>
		<polygon points="317.322,466.077 315.734,506.392 316.123,506.392 317.711,466.077 		"/>
		<polygon points="301.242,466.077 299.654,506.392 299.97,506.392 301.558,466.077 		"/>
		<polygon points="302.631,466.077 301.043,506.392 301.285,506.392 302.874,466.077 		"/>
		<polygon points="303.947,466.077 302.359,506.392 302.601,506.392 304.189,466.077 		"/>
		<polygon points="299.927,466.077 298.338,506.392 298.581,506.392 300.169,466.077 		"/>
		<polygon points="297.295,466.077 295.708,506.392 295.95,506.392 297.538,466.077 		"/>
		<polygon points="298.611,466.077 297.023,506.392 297.265,506.392 298.854,466.077 		"/>
		<polygon points="295.572,466.077 295.572,482.581 296.222,466.077 		"/>
		<polygon points="305.262,466.077 303.674,506.392 303.917,506.392 305.504,466.077 		"/>
		<polygon points="340.199,466.077 338.611,506.392 338.854,506.392 340.441,466.077 		"/>
		<polygon points="314.691,466.077 313.104,506.392 313.346,506.392 314.934,466.077 		"/>
		<polygon points="311.986,466.077 310.398,506.392 310.713,506.392 312.303,466.077 		"/>
		<polygon points="306.578,466.077 304.99,506.392 305.378,506.392 306.967,466.077 		"/>
		<polygon points="316.006,466.077 314.418,506.392 314.66,506.392 316.248,466.077 		"/>
		<polygon points="313.375,466.077 311.787,506.392 312.029,506.392 313.617,466.077 		"/>
		<polygon points="308.039,466.077 306.452,506.392 306.693,506.392 308.281,466.077 		"/>
		<polygon points="309.355,466.077 307.768,506.392 308.01,506.392 309.598,466.077 		"/>
		<polygon points="310.67,466.077 309.082,506.392 309.324,506.392 310.912,466.077 		"/>
		<polygon points="348.24,466.077 346.652,506.392 346.967,506.392 348.555,466.077 		"/>
		<polygon points="352.26,466.077 350.672,506.392 350.914,506.392 352.502,466.077 		"/>
		<polygon points="350.943,466.077 349.355,506.392 349.598,506.392 351.186,466.077 		"/>
		<polygon points="353.574,466.077 351.986,506.392 352.23,506.392 353.818,466.077 		"/>
		<polygon points="349.629,466.077 348.041,506.392 348.283,506.392 349.871,466.077 		"/>
		<polygon points="342.83,466.077 341.242,506.392 341.631,506.392 343.219,466.077 		"/>
		<polygon points="344.293,466.077 342.705,506.392 342.947,506.392 344.535,466.077 		"/>
		<polygon points="354.35,479.823 353.303,506.392 353.545,506.392 354.35,485.972 		"/>
		<polygon points="346.924,466.077 345.336,506.392 345.578,506.392 347.166,466.077 		"/>
		<polygon points="345.609,466.077 344.021,506.392 344.264,506.392 345.852,466.077 		"/>
		<polygon points="341.516,466.077 339.928,506.392 340.17,506.392 341.758,466.077 		"/>
		<polygon fill="#737373" points="296.222,466.077 295.572,482.581 295.572,506.392 295.708,506.392 297.295,466.077 		"/>
		<polygon fill="#737373" points="297.538,466.077 295.95,506.392 297.023,506.392 298.611,466.077 		"/>
		<polygon fill="#737373" points="298.854,466.077 297.265,506.392 298.338,506.392 299.927,466.077 		"/>
		<polygon fill="#737373" points="300.169,466.077 298.581,506.392 299.654,506.392 301.242,466.077 		"/>
		<polygon fill="#737373" points="301.558,466.077 299.97,506.392 301.043,506.392 302.631,466.077 		"/>
		<polygon fill="#737373" points="302.874,466.077 301.285,506.392 302.359,506.392 303.947,466.077 		"/>
		<polygon fill="#737373" points="304.189,466.077 302.601,506.392 303.674,506.392 305.262,466.077 		"/>
		<polygon fill="#737373" points="305.504,466.077 303.917,506.392 304.99,506.392 306.578,466.077 		"/>
		<polygon fill="#737373" points="306.967,466.077 305.378,506.392 306.452,506.392 308.039,466.077 		"/>
		<polygon fill="#737373" points="308.281,466.077 306.693,506.392 307.768,506.392 309.355,466.077 		"/>
		<polygon fill="#737373" points="309.598,466.077 308.01,506.392 309.082,506.392 310.67,466.077 		"/>
		<polygon fill="#737373" points="310.912,466.077 309.324,506.392 310.398,506.392 311.986,466.077 		"/>
		<polygon fill="#737373" points="312.303,466.077 310.713,506.392 311.787,506.392 313.375,466.077 		"/>
		<polygon fill="#737373" points="313.617,466.077 312.029,506.392 313.104,506.392 314.691,466.077 		"/>
		<polygon fill="#737373" points="314.934,466.077 313.346,506.392 314.418,506.392 316.006,466.077 		"/>
		<polygon fill="#737373" points="316.248,466.077 314.66,506.392 315.734,506.392 317.322,466.077 		"/>
		<polygon fill="#737373" points="317.711,466.077 316.123,506.392 317.195,506.392 318.785,466.077 		"/>
		<polygon fill="#737373" points="319.027,466.077 317.438,506.392 318.512,506.392 320.1,466.077 		"/>
		<polygon fill="#737373" points="320.342,466.077 318.754,506.392 319.826,506.392 321.416,466.077 		"/>
		<polygon fill="#737373" points="321.658,466.077 320.07,506.392 321.143,506.392 322.73,466.077 		"/>
		<polygon fill="#737373" points="323.047,466.077 321.459,506.392 322.531,506.392 324.119,466.077 		"/>
		<polygon fill="#737373" points="324.361,466.077 322.773,506.392 323.848,506.392 325.436,466.077 		"/>
		<polygon fill="#737373" points="325.678,466.077 324.09,506.392 325.162,506.392 326.75,466.077 		"/>
		<polygon fill="#737373" points="326.994,466.077 325.404,506.392 326.479,506.392 328.066,466.077 		"/>
		<polygon fill="#737373" points="328.455,466.077 326.867,506.392 327.941,506.392 329.529,466.077 		"/>
		<polygon fill="#737373" points="329.771,466.077 328.182,506.392 329.256,506.392 330.844,466.077 		"/>
		<polygon fill="#737373" points="331.086,466.077 329.498,506.392 330.572,506.392 332.16,466.077 		"/>
		<polygon fill="#737373" points="332.402,466.077 330.814,506.392 331.887,506.392 333.477,466.077 		"/>
		<polygon fill="#737373" points="333.791,466.077 332.203,506.392 333.275,506.392 334.863,466.077 		"/>
		<polygon fill="#737373" points="335.107,466.077 333.52,506.392 334.592,506.392 336.18,466.077 		"/>
		<polygon fill="#737373" points="336.422,466.077 334.834,506.392 335.908,506.392 337.496,466.077 		"/>
		<polygon fill="#737373" points="337.738,466.077 336.15,506.392 337.223,506.392 338.811,466.077 		"/>
		<polygon fill="#737373" points="339.127,466.077 337.539,506.392 338.611,506.392 340.199,466.077 		"/>
		<polygon fill="#737373" points="340.441,466.077 338.854,506.392 339.928,506.392 341.516,466.077 		"/>
		<polygon fill="#737373" points="341.758,466.077 340.17,506.392 341.242,506.392 342.83,466.077 		"/>
		<polygon fill="#737373" points="343.219,466.077 341.631,506.392 342.705,506.392 344.293,466.077 		"/>
		<polygon fill="#737373" points="344.535,466.077 342.947,506.392 344.021,506.392 345.609,466.077 		"/>
		<polygon fill="#737373" points="345.852,466.077 344.264,506.392 345.336,506.392 346.924,466.077 		"/>
		<polygon fill="#737373" points="347.166,466.077 345.578,506.392 346.652,506.392 348.24,466.077 		"/>
		<polygon fill="#737373" points="348.555,466.077 346.967,506.392 348.041,506.392 349.629,466.077 		"/>
		<polygon fill="#737373" points="349.871,466.077 348.283,506.392 349.355,506.392 350.943,466.077 		"/>
		<polygon fill="#737373" points="351.186,466.077 349.598,506.392 350.672,506.392 352.26,466.077 		"/>
		<polygon fill="#737373" points="352.502,466.077 350.914,506.392 351.986,506.392 353.574,466.077 		"/>
		<polygon fill="#737373" points="354.35,466.077 353.818,466.077 352.23,506.392 353.303,506.392 354.35,479.823 		"/>
		<polygon fill="#737373" points="354.35,485.972 353.545,506.392 354.35,506.392 		"/>
	</g>
	<path fill="#ABABAB" d="M355.426,506.923c0,0.51-0.412,0.924-0.922,0.924l0,0c-0.512,0-0.924-0.414-0.924-0.924v-41.438
		c0-0.511,0.412-0.923,0.924-0.923l0,0c0.51,0,0.922,0.412,0.922,0.923V506.923z"/>
	<path fill="#ABABAB" d="M296.649,506.923c0,0.51-0.414,0.924-0.923,0.924l0,0c-0.51,0-0.923-0.414-0.923-0.924v-41.438
		c0-0.511,0.413-0.923,0.923-0.923l0,0c0.509,0,0.923,0.412,0.923,0.923V506.923z"/>
	<polygon fill="#4D4D4D" points="280.614,412.749 239.397,412.749 238.573,412.749 238.573,415.862 238.573,456.433 
		238.573,457.873 239.464,457.873 280.489,457.873 281.522,457.873 281.522,456.77 281.522,414.203 281.522,412.749 	"/>
</g>
</svg>
