<?xml version="1.0" encoding="UTF-8" standalone="no"?>
<!-- Created with Inkscape (http://www.inkscape.org/) -->

<svg
   xmlns:dc="http://purl.org/dc/elements/1.1/"
   xmlns:cc="http://creativecommons.org/ns#"
   xmlns:rdf="http://www.w3.org/1999/02/22-rdf-syntax-ns#"
   xmlns:svg="http://www.w3.org/2000/svg"
   xmlns="http://www.w3.org/2000/svg"
   xmlns:sodipodi="http://sodipodi.sourceforge.net/DTD/sodipodi-0.dtd"
   xmlns:inkscape="http://www.inkscape.org/namespaces/inkscape"
   width="210mm"
   height="297mm"
   viewBox="0 0 744.09448819 1052.3622047"
   id="svg2"
   version="1.1"
   inkscape:version="0.91 r13725"
   sodipodi:docname="SpiralAutoCalibrationSymbol.svg">
  <defs
     id="defs4">
    <marker
       inkscape:stockid="TriangleOutL"
       orient="auto"
       refY="0.0"
       refX="0.0"
       id="TriangleOutL"
       style="overflow:visible"
       inkscape:isstock="true">
      <path
         id="path4284"
         d="M 5.77,0.0 L -2.88,5.0 L -2.88,-5.0 L 5.77,0.0 z "
         style="fill-rule:evenodd;stroke:#000000;stroke-width:1pt;stroke-opacity:1;fill:#000000;fill-opacity:1"
         transform="scale(0.8)" />
    </marker>
  </defs>
  <sodipodi:namedview
     id="base"
     pagecolor="#ffffff"
     bordercolor="#666666"
     borderopacity="1.0"
     inkscape:pageopacity="0.0"
     inkscape:pageshadow="2"
     inkscape:zoom="0.7"
     inkscape:cx="163.93485"
     inkscape:cy="571.02555"
     inkscape:document-units="px"
     inkscape:current-layer="layer1"
     showgrid="false"
     inkscape:window-width="1920"
     inkscape:window-height="1059"
     inkscape:window-x="0"
     inkscape:window-y="21"
     inkscape:window-maximized="1" />
  <metadata
     id="metadata7">
    <rdf:RDF>
      <cc:Work
         rdf:about="">
        <dc:format>image/svg+xml</dc:format>
        <dc:type
           rdf:resource="http://purl.org/dc/dcmitype/StillImage" />
        <dc:title></dc:title>
      </cc:Work>
    </rdf:RDF>
  </metadata>
  <g
     inkscape:label="Layer 1"
     inkscape:groupmode="layer"
     id="layer1">
    <path
       sodipodi:type="spiral"
       style="fill:none;fill-rule:evenodd;stroke:#000000;stroke-width:7;stroke-linecap:butt;stroke-linejoin:miter;stroke-opacity:1;stroke-miterlimit:4;stroke-dasharray:none;marker-end:url(#TriangleOutL)"
       id="path4136"
       sodipodi:cx="248.57143"
       sodipodi:cy="389.50507"
       sodipodi:expansion="1"
       sodipodi:revolution="3"
       sodipodi:radius="137.8849"
       sodipodi:argument="-18.745764"
       sodipodi:t0="0"
       d="m 248.57143,389.50507 c 6.87612,0.71626 2.42693,9.62225 -1.19048,11.42857 -9.80294,4.895 -19.77052,-4.66134 -21.66667,-13.80952 -3.39177,-16.36396 10.99179,-30.27305 26.42857,-31.90477 22.65409,-2.39462 40.97006,17.36591 42.14286,39.04761 1.56316,28.8983 -23.75,51.74295 -51.66665,52.38097 -35.13026,0.80288 -62.55365,-30.13751 -62.61907,-64.28571 -0.0792,-41.35804 36.52666,-73.38598 76.90475,-72.85716 47.5842,0.6232 84.23186,42.91678 83.09526,89.5238 -1.31224,53.80964 -49.30756,95.08677 -102.14284,93.33336 -60.0348,-1.99234 -105.94801,-55.69883 -103.57145,-114.76189 2.66614,-66.25983 62.09044,-116.81387 127.38093,-113.80956 72.48482,3.33536 127.68317,68.48234 124.04765,139.99998" />
  </g>
</svg>
